<?xml version="1.0" encoding="UTF-8"?>
<svg id="Layer_1" xmlns="http://www.w3.org/2000/svg" viewBox="0 0 257.69 398.49">
  <rect x=".16" y="340.52" width="257.33" height="57.97" style="fill: #f05146;"/>
  <g>
    <path d="M.01,297.4c-.78-30.6,38.68-60.93,61.11-78.05,26.96-19.7,56.26-38.91,82.41-59.65C194.04,119.36,254.54,69.46,257.5,0c.67,8.33-.5,17.19-2.12,25.53-19.52,88.1-127.23,142.2-192.75,195.81-19.66,15.72-40.47,31.16-54.29,52.49-4.48,7.07-7.64,15.1-8.03,23.58,0,.18-.3.19-.3,0H.01Z" style="fill: #091f2f;"/>
    <path d="M.01,297.4c-.64-35.54,54.61-72.17,81.32-90.88,34.34-23.24,68.82-47.91,100.01-75.16,36.72-32.34,73.33-72.98,76.16-124.1.51,8.22-.84,16.93-2.6,25.11-21.03,86.01-127.67,138.27-192.58,190.59-19.49,15.34-40.1,30.4-53.89,51.3-4.47,6.92-7.66,14.81-8.12,23.15,0,.18-.3.18-.3,0H.01Z" style="fill: #091f2f;"/>
    <path d="M.01,297.4c-.29-35.03,54.35-70.69,80.85-88.9,34.04-22.59,68.22-46.6,99.29-73.05,36.53-31.44,73.39-70.68,77.36-120.94.34,8.1-1.18,16.66-3.1,24.68-22.5,83.88-128.08,134.34-192.39,185.37-19.32,14.96-39.73,29.64-53.49,50.11-4.46,6.78-7.67,14.52-8.21,22.74,0,.18-.31.18-.3,0H.01Z" style="fill: #091f2f;"/>
    <path d="M.01,297.4c.07-34.56,54.08-69.2,80.38-86.93,33.74-21.95,67.62-45.29,98.56-70.95,36.76-30.7,73.13-68.67,78.69-117.6-.5,16.31-5.29,32.36-12.71,46.86-34.58,64.85-106.23,101.25-163.6,143.07-19.57,14.24-39.61,28.24-57.11,44.95-11.24,11.11-22.57,24.19-23.92,40.62,0,.18-.31.18-.3,0H.01Z" style="fill: #091f2f;"/>
    <path d="M.01,297.4c.41-34.05,53.83-67.74,79.93-84.97,33.44-21.31,67.03-43.99,97.84-68.86,36.48-29.68,73.22-66.55,79.86-114.4-.87,16.06-5.99,31.74-13.61,45.86-7.66,14.17-17.63,26.99-28.69,38.65-38.91,40.79-88.88,67.87-134.47,100.14-19.4,13.86-39.25,27.49-56.63,43.81-11.17,10.85-22.43,23.63-23.93,39.79,0,.18-.31.18-.3-.01H.01Z" style="fill: #091f2f;"/>
    <path d="M.01,297.39c.76-33.55,53.59-66.29,79.48-83.02,33.15-20.67,66.44-42.69,97.13-66.78,35.99-28.77,73.38-63.83,80.89-111.34-.19,7.75-2.27,15.81-4.65,23.33-27.01,77.59-128.99,122.41-191.73,169.74-18.83,13.82-38.65,27.39-52.32,46.59-4.44,6.37-7.73,13.66-8.49,21.49,0,.18-.31.17-.3-.01H.01Z" style="fill: #091f2f;"/>
    <path d="M.01,297.39c1.1-33.05,53.37-64.84,79.05-81.08,32.86-20.04,65.86-41.4,96.42-64.71,35.81-27.9,73.32-61.57,82.04-108.1-.38,7.62-2.64,15.52-5.18,22.86-28.51,75.49-129.21,118.4-191.49,164.54-18.67,13.45-38.3,26.64-51.95,45.43-4.43,6.23-7.75,13.37-8.59,21.08,0,.18-.31.17-.3-.02H.01Z" style="fill: #091f2f;"/>
    <path d="M.01,297.39c1.45-32.55,53.15-63.4,78.63-79.14,39.06-23.46,78.31-47.99,113.69-76.72,28.98-23.85,57.16-53.01,65.19-90.78-1.53,15.15-8.12,29.95-16.21,42.89-25.31,38.87-64.94,65.28-103.53,89.55-26.03,15.96-52.17,31.77-77.19,49.27-18.51,13.08-37.96,25.9-51.59,44.27-4.42,6.09-7.77,13.09-8.69,20.67,0,.18-.32.17-.3-.02H.01Z" style="fill: #091f2f;"/>
    <path d="M.01,297.39c1.8-32.06,52.94-61.97,78.23-77.21,38.72-22.7,77.63-46.46,112.93-74.19,28.9-23.06,57.31-51.06,66.35-87.98-1.93,14.87-8.84,29.26-17.12,41.81-25.86,37.65-65.2,63.05-103.52,86.49-25.84,15.41-51.74,30.71-76.55,47.73-18.36,12.71-37.63,25.16-51.23,43.11-4.42,5.96-7.79,12.81-8.79,20.26,0,.18-.32.16-.3-.03H.01Z" style="fill: #091f2f;"/>
    <path d="M.01,297.39c2.15-31.57,52.75-60.55,77.84-75.3,38.39-21.95,76.96-44.93,112.19-71.67,28.83-22.27,57.42-49.12,67.49-85.16-2.33,14.59-9.56,28.55-18.02,40.71-26.39,36.42-65.43,60.83-103.49,83.44-25.64,14.85-51.32,29.66-75.92,46.18-18.21,12.34-37.3,24.42-50.89,41.97-4.41,5.82-7.81,12.53-8.89,19.86-.01.18-.32.16-.3-.03H.01Z" style="fill: #091f2f;"/>
    <path d="M.01,297.39c2.48-31.06,52.59-59.15,77.47-73.39,18.56-10.33,38.89-21.82,56.84-32.92,45.31-28.63,106.39-65.24,123.21-118.57-2.74,14.29-10.29,27.82-18.92,39.58-26.9,35.18-65.64,58.61-103.45,80.4-25.45,14.3-50.9,28.61-75.3,44.65-18.06,11.97-36.98,23.69-50.55,40.82-4.41,5.69-7.84,12.25-9,19.46-.01.18-.32.15-.3-.03H.01Z" style="fill: #091f2f;"/>
    <path d="M.01,297.38c2.84-30.62,52.39-57.7,77.12-71.49,31.47-16.9,63.1-35.04,92.98-54.52,35.11-23.33,72.67-51.28,87.53-91.43-3.63,14.02-10.98,26.9-19.91,38.24-27.39,33.94-65.83,56.41-103.38,77.37-25.28,13.72-50.49,27.58-74.7,43.12-17.93,11.59-36.65,22.97-50.22,39.69-4.43,5.54-7.87,11.97-9.11,19.05-.02.18-.32.15-.3-.04H.01Z" style="fill: #091f2f;"/>
    <path d="M.01,297.38c3.2-30.14,52.23-56.3,76.78-69.6,31.21-16.28,62.59-33.79,92.32-52.51,34.31-22.4,72.84-48.59,88.24-88.17.05-.17.35-.08.28.09-4.05,13.66-11.69,26.11-20.79,37.06-27.86,32.69-66,54.21-103.3,74.35-25.09,13.18-50.09,26.55-74.1,41.6-17.79,11.23-36.35,22.24-49.91,38.56-4.42,5.41-7.9,11.69-9.22,18.65-.02.18-.32.14-.3-.04H.01Z" style="fill: #091f2f;"/>
    <path d="M.01,297.38c3.53-29.64,52.11-54.93,76.47-67.72,30.95-15.66,62.08-32.54,91.67-50.51,34.08-21.48,72.68-46.57,89.2-84.8.06-.17.35-.07.28.1-4.47,13.31-12.39,25.31-21.66,35.85-28.31,31.44-66.15,52.01-103.21,71.35-24.91,12.63-49.7,25.51-73.53,40.09-17.65,10.87-36.05,21.52-49.61,37.43-4.42,5.27-7.93,11.42-9.33,18.26-.02.18-.33.14-.3-.04H.01Z" style="fill: #091f2f;"/>
    <path d="M.01,297.38c3.91-29.19,51.97-53.52,76.17-65.85,30.7-15.05,61.58-31.29,91.04-48.52,33.9-20.59,72.47-44.53,90.13-81.42.07-.17.35-.06.28.12-4.9,12.95-13.09,24.49-22.5,34.62-28.74,30.19-66.29,49.83-103.09,68.35-24.73,12.09-49.31,24.49-72.96,38.58-17.52,10.51-35.77,20.8-49.32,36.31-4.42,5.14-7.97,11.15-9.44,17.87-.03.18-.33.14-.3-.05H.01Z" style="fill: #091f2f;"/>
    <path d="M.01,297.38c4.27-28.72,51.87-52.14,75.9-63.98,30.46-14.44,61.1-30.05,90.42-46.54,33.71-19.7,72.25-42.53,91.02-78.01.07-.17.35-.04.27.13-5.32,12.56-13.77,23.64-23.33,33.36-49.16,48.21-117.33,67.77-175.38,102.44-17.4,10.14-35.49,20.08-49.05,35.19-4.42,5.01-8,10.88-9.56,17.48-.03.18-.33.13-.3-.05H.01Z" style="fill: #091f2f;"/>
    <path d="M.01,297.37c4.74-28.37,51.69-50.7,75.65-62.13,30.22-13.83,60.64-28.81,89.82-44.57,33.57-18.84,71.98-40.51,91.87-74.6.08-.16.35-.03.27.14-5.75,12.16-14.45,22.78-24.14,32.08-49.72,46.14-117,64.51-174.71,97.97-17.28,9.79-35.23,19.36-48.8,34.07-4.42,4.88-8.04,10.61-9.68,17.09-.03.18-.33.13-.29-.06H.01Z" style="fill: #091f2f;"/>
    <path d="M.01,297.37c5.1-27.9,51.63-49.34,75.43-60.28,29.99-13.22,60.19-27.57,89.24-42.6,33.16-17.77,72.01-38.8,92.68-71.17.09-.16.36-.01.26.15-6.17,11.74-15.1,21.89-24.92,30.77-50.25,44.08-116.66,61.27-174.04,93.52-17.16,9.43-34.98,18.64-48.56,32.96-4.43,4.75-8.09,10.34-9.8,16.71-.03.18-.33.12-.29-.06H.01Z" style="fill: #091f2f;"/>
    <path d="M.02,297.37c5.47-27.44,51.59-47.98,75.23-58.43,29.77-12.61,59.75-26.34,88.68-40.64,33.05-16.94,71.7-36.8,93.45-67.72.09-.16.36,0,.25.16-6.58,11.3-15.73,20.97-25.68,29.45-50.74,42.02-116.32,58.05-173.38,89.08-17.05,9.07-34.73,17.93-48.33,31.85-4.43,4.63-8.13,10.07-9.92,16.32-.04.18-.34.11-.29-.07H.02Z" style="fill: #091f2f;"/>
    <path d="M.02,297.37c5.85-26.98,51.56-46.62,75.06-56.59,29.55-12,59.34-25.1,88.13-38.69,32.96-16.13,71.36-34.81,94.16-64.27.1-.15.35.02.25.17-6.98,10.85-16.34,20.04-26.4,28.1-51.19,39.97-115.96,54.85-172.73,84.66-16.95,8.71-34.5,17.21-48.13,30.75-4.44,4.5-8.18,9.81-10.05,15.94-.04.18-.34.11-.29-.07H.02Z" style="fill: #091f2f;"/>
    <path d="M.02,297.36c6.24-26.53,51.56-45.27,74.92-54.76,29.35-11.4,58.94-23.87,87.61-36.74,33.3-15.58,70.52-32.49,94.83-60.81.11-.15.35.03.24.18-7.38,10.38-16.92,19.09-27.09,26.73-51.61,37.93-115.61,51.66-172.09,80.26-16.85,8.35-34.28,16.5-47.94,29.64-4.44,4.37-8.23,9.54-10.18,15.57-.04.18-.34.1-.29-.08H.02Z" style="fill: #091f2f;"/>
    <path d="M.02,297.36c6.62-26.09,51.58-43.93,74.81-52.92,29.15-10.79,58.56-22.64,87.11-34.79,17.2-7.38,34.19-15.21,50.6-24.18,16.3-9.04,32.09-19.39,44.85-33.17.12-.14.35.05.23.19-7.75,9.89-17.48,18.13-27.75,25.35-52,35.9-115.25,48.49-171.47,75.86-16.76,7.99-34.08,15.78-47.77,28.54-4.45,4.25-8.28,9.28-10.32,15.19-.05.18-.34.1-.29-.08H.02Z" style="fill: #091f2f;"/>
    <path d="M.02,297.36c7.02-25.64,51.62-42.59,74.73-51.09,28.97-10.18,58.19-21.41,86.63-32.84,33.92-14.13,69.14-28.56,96.23-53.88-11.79,14.27-28.23,24.66-44.34,33.71-49.03,26.82-104.41,38.39-154.87,61.93-16.68,7.63-33.89,15.07-47.61,27.44-4.46,4.12-8.34,9.02-10.46,14.82-.05.17-.34.09-.29-.09H.02Z" style="fill: #091f2f;"/>
    <path d="M.02,297.36c7.41-25.19,51.69-41.25,74.68-49.26,28.79-9.57,57.85-20.18,86.17-30.89,33.74-12.98,69.3-27.41,96.73-50.2-12.75,13.3-28.73,23.09-45,31.52-49.11,25.18-103.97,35.7-154.2,58.15-16.6,7.27-33.71,14.36-47.48,26.33-4.48,4-8.4,8.76-10.61,14.45-.05.17-.34.08-.29-.09H.02Z" style="fill: #091f2f;"/>
    <path d="M.02,297.35c7.82-24.76,51.78-39.9,74.66-47.42,26.75-8.31,59.14-19.54,85.74-28.93,33.65-12.51,68.42-24.56,96.98-46.96.13-.12.34.1.2.22-8.78,8.35-18.93,15.17-29.46,21.16-52.99,29.86-114.16,39.05-169.7,62.73-16.53,6.91-33.54,13.64-47.37,25.23-4.49,3.88-8.46,8.5-10.76,14.08-.06.17-.34.08-.28-.1H.02Z" style="fill: #091f2f;"/>
    <path d="M.02,297.35c8.23-24.32,51.9-38.56,74.67-45.58,26.6-7.74,58.84-18.23,85.33-26.97,33.59-11.63,68.11-22.77,97.38-43.51.14-.12.33.12.19.23-9.07,7.82-19.35,14.17-29.94,19.75-53.26,27.87-113.8,35.93-169.15,58.36-16.46,6.55-33.39,12.92-47.28,24.12-4.51,3.75-8.53,8.24-10.92,13.71-.06.17-.35.07-.28-.1H.02Z" style="fill: #091f2f;"/>
    <path d="M.02,297.35c8.65-23.89,52.04-37.21,74.72-43.73,26.45-7.17,58.55-16.92,84.95-25.01,33.52-10.76,67.82-20.98,97.72-40.08.15-.11.33.13.17.24-9.34,7.28-19.73,13.18-30.38,18.35-53.5,25.9-113.44,32.81-168.62,53.99-16.41,6.18-33.25,12.19-47.2,23-4.53,3.63-8.6,7.98-11.08,13.34-.06.17-.35.06-.28-.11H.02Z" style="fill: #091f2f;"/>
    <path d="M.02,297.34c9.09-23.47,52.2-35.85,74.8-41.88,26.32-6.59,58.28-15.6,84.58-23.03,33.46-9.87,67.54-19.21,98-36.66.15-.1.32.15.16.25-9.59,6.75-20.06,12.19-30.77,16.96-53.7,23.96-113.08,29.71-168.11,49.63-16.36,5.81-33.13,11.45-47.15,21.87-4.55,3.51-8.68,7.72-11.24,12.97-.07.17-.35.05-.28-.12H.02Z" style="fill: #091f2f;"/>
    <path d="M.02,297.34c9.57-23.07,52.36-34.46,74.92-40.01,26.19-6.02,58.04-14.28,84.24-21.05,33.39-8.98,67.29-17.45,98.23-33.27.16-.09.31.17.15.26-9.8,6.21-20.36,11.21-31.12,15.57-32.36,12.95-66.51,20.49-100.51,27.68-22.68,4.62-45.16,10.23-67.1,17.59-16.31,5.43-33.02,10.71-47.12,20.74-4.57,3.39-8.76,7.46-11.42,12.6-.07.17-.35.05-.27-.12H.02Z" style="fill: #091f2f;"/>
    <path d="M.03,297.34c10.01-22.64,52.58-33.09,75.06-38.12,26.07-5.44,57.81-12.94,83.93-19.05,33.33-8.09,67.04-15.69,98.41-29.9.16-.08.3.18.14.27-10,5.69-20.63,10.24-31.43,14.21-32.46,11.79-66.44,18.48-100.29,24.86-22.57,4.08-44.96,9.19-66.85,16.04-16.27,5.06-32.93,9.96-47.11,19.6-4.6,3.26-8.84,7.2-11.59,12.23-.08.16-.35.04-.27-.13H.03Z" style="fill: #091f2f;"/>
    <path d="M.03,297.33c12.2-25.74,66.18-34.46,92.02-39.45,22.34-4.3,44.57-9.27,66.86-13.8,33.26-7.2,66.81-13.93,98.53-26.57.16-.08.29.2.12.27-10.16,5.17-20.86,9.28-31.69,12.86-32.54,10.64-66.36,16.49-100.06,22.04-22.47,3.54-44.77,8.14-66.61,14.48-16.24,4.68-32.83,9.19-47.12,18.44-4.62,3.14-8.93,6.93-11.77,11.86-.08.16-.35.03-.27-.14H.03Z" style="fill: #091f2f;"/>
    <path d="M.03,297.33c12.75-25.26,66.39-32.75,92.17-37.13,33.32-5.94,66.65-12.02,99.85-18.57,22.15-4.28,44.29-9.78,65.59-16.78-15.17,7.31-32,11.9-48.39,16.14-27.46,6.74-55.47,10.88-83.44,14.81-22.37,2.99-44.59,7.08-66.4,12.9-16.22,4.3-32.76,8.42-47.15,17.27-4.67,3.03-9.03,6.68-11.96,11.49-.08.16-.35.02-.26-.14H.03Z" style="fill: #091f2f;"/>
    <path d="M.03,297.33c13.29-24.76,66.64-31.03,92.35-34.78,22.18-3.25,44.28-7.14,66.44-10.52,32.95-5.05,67.32-11.24,98.73-19.74-20.91,8.26-42.97,13.3-65.04,17.4-44.11,8.17-89.28,9.62-132.87,20.58-16.19,3.91-32.71,7.64-47.19,16.09-4.7,2.9-9.12,6.42-12.16,11.11-.09.16-.35.01-.26-.15H.03Z" style="fill: #091f2f;"/>
    <path d="M.03,297.32c13.82-24.24,66.94-29.29,92.56-32.39,22.11-2.71,44.16-6.06,66.25-8.85,32.87-4.17,67.16-9.45,98.69-16.53-21.1,7.31-43.14,11.66-65.17,15.11-44.02,6.9-88.92,7.31-132.48,17.2-10.86,2.29-21.7,4.68-32.15,8.26-7.76,2.72-15.48,6.03-21.87,11.3-2.1,1.77-4.01,3.78-5.59,6.06-.09.15-.35,0-.26-.16H.03Z" style="fill: #091f2f;"/>
    <path d="M.04,297.32c12.35-20.46,54.05-26,76.25-28.35,27.42-2.51,55.28-5.97,82.62-8.8,32.99-3.64,66-6.89,98.55-13.67-41.27,13.16-87.66,15.66-131.43,18.92-22.1,1.33-44.13,3.81-65.86,8.04-10.85,2.01-21.68,4.15-32.15,7.45-7.78,2.53-15.53,5.62-22.02,10.69-2.14,1.7-4.09,3.65-5.71,5.88-.09.15-.35,0-.25-.16H.04Z" style="fill: #091f2f;"/>
    <path d="M.04,297.32c12.89-20.04,54.37-24.5,76.57-26.3,27.34-1.82,55.14-4.59,82.41-6.69,32.92-2.75,65.83-5.13,98.45-10.57-41.52,11.48-87.66,12.85-131.29,14.97-22.02.76-43.99,2.7-65.71,6.38-10.84,1.73-21.66,3.6-32.16,6.61-7.81,2.33-15.58,5.21-22.17,10.08-2.17,1.63-4.16,3.52-5.84,5.69-.1.15-.35-.02-.25-.17H.04Z" style="fill: #091f2f;"/>
    <path d="M.04,297.31c15.96-22.87,67.56-23.74,93.36-25,21.92-1.04,43.83-2.72,65.74-3.77,32.6-1.53,66.73-4.06,98.38-7.24-32.27,6.9-65.35,9.04-98.26,10.06-27.4,1-54.91.22-82.18,3.41-16.25,1.91-32.61,3.74-48.49,7.77-7.84,2.12-15.64,4.78-22.34,9.45-2.2,1.57-4.24,3.39-5.97,5.5-.1.15-.35-.03-.24-.18H.04Z" style="fill: #091f2f;"/>
    <path d="M.04,297.31c13.93-19.14,55.12-21.43,77.26-22.09,27.18-.4,54.87-1.75,82-2.41,32.77-.97,65.49-1.62,98.18-4.56-41.9,8.3-87.58,7.43-130.94,7.23-21.85-.38-43.73.43-65.44,2.98-10.83,1.17-21.65,2.44-32.21,4.91-7.87,1.89-15.7,4.35-22.51,8.81-2.24,1.5-4.32,3.26-6.11,5.31-.11.14-.35-.04-.24-.18H.04Z" style="fill: #091f2f;"/>
    <path d="M.05,297.31c14.46-18.68,55.51-19.85,77.62-19.92,27.11.33,54.74-.3,81.8-.23,31.63.04,66.86-.18,98.16-1.51-43.1,6.42-87.35,4.8-130.89,3.31-21.77-.95-43.6-.72-65.31,1.24-10.82.88-21.65,1.85-32.24,4.03-7.9,1.66-15.77,3.91-22.68,8.16-2.28,1.43-4.4,3.13-6.24,5.12-.11.14-.35-.05-.23-.19H.05Z" style="fill: #091f2f;"/>
    <path d="M.05,297.3c14.99-18.2,55.92-18.24,78-17.7,27.03,1.07,54.62,1.17,81.61,1.96,31.55.75,66.39,1.88,97.82,1.19-42.14,5.38-87.43,2.26-130.52-.26-21.7-1.53-43.47-1.89-65.19-.53-18.62,1.29-38.38,1.57-55.13,10.62-2.31,1.36-4.47,3-6.38,4.92-.12.14-.35-.06-.23-.2H.05Z" style="fill: #091f2f;"/>
    <path d="M.05,297.3c15.54-17.72,56.33-16.59,78.39-15.44,26.96,1.81,54.49,2.66,81.42,4.17,31.48,1.59,66.24,3.64,97.63,3.97-42.23,4.02-87.34-.22-130.3-3.92-21.62-2.12-43.35-3.07-65.06-2.33-18.6.76-38.38.5-55.34,9.02-2.35,1.29-4.55,2.86-6.52,4.72-.12.13-.35-.07-.22-.21H.05Z" style="fill: #091f2f;"/>
    <path d="M.06,297.3c16.11-17.23,56.73-14.89,78.77-13.12,26.88,2.58,54.37,4.17,81.23,6.4,31.42,2.44,66.08,5.38,97.43,6.68-42.3,2.73-87.26-2.63-130.08-7.5-21.54-2.71-43.23-4.26-64.94-4.14-18.61.21-38.36-.62-55.56,7.38-2.38,1.23-4.63,2.72-6.65,4.52-.12.13-.34-.08-.21-.21H.06Z" style="fill: #091f2f;"/>
  </g>
  <path d="M121.94,89.32l11.67,1.74-11.67,1.74c-18.92,2.82-33.77,17.67-36.59,36.59l-1.74,11.67-1.74-11.67c-2.82-18.92-17.67-33.77-36.59-36.59l-11.67-1.74,11.67-1.74c18.92-2.82,33.77-17.67,36.59-36.59l1.74-11.67,1.74,11.67c2.82,18.92,17.67,33.77,36.59,36.59Z" style="fill: #091f2f; fill-rule: evenodd;"/>
  <g>
    <g>
      <polygon points="71.48 106.02 41.14 133.53 68.65 103.2 71.48 106.02 71.48 106.02" style="fill: #091f2f;"/>
      <polygon points="95.75 76.09 126.09 48.58 98.58 78.92 95.75 76.09 95.75 76.09" style="fill: #091f2f;"/>
    </g>
    <g>
      <polygon points="68.65 78.92 41.14 48.58 71.48 76.09 68.65 78.92 68.65 78.92" style="fill: #091f2f;"/>
      <polygon points="98.58 103.2 126.09 133.53 95.75 106.02 98.58 103.2 98.58 103.2" style="fill: #091f2f;"/>
    </g>
  </g>
</svg>